<svg xmlns="http://www.w3.org/2000/svg" viewBox="0 0 64 80" x="0px" y="0px"><g data-name="line expand (outline)"><path d="M55.255,33.659,46.59,33.04,40.863,23.5,38,18.723V17.4a2.6,2.6,0,0,0-3.539-2.426l-8.234,3.176.622-2.088a3.88,3.88,0,0,0-1.915-4.472L18.473,8.119a1,1,0,0,0-1.33.366l-2.99,4.983-2.294,3.606c-.005.006-.012.009-.016.016L10.824,18.7,7.666,23.661l-.2-.116a1,1,0,0,0-1.382.4L3.117,29.531a1,1,0,0,0,.4,1.344l36.084,20a1,1,0,0,0,.484.125H55a6.006,6.006,0,0,0,6-6V39.828A6.207,6.207,0,0,0,55.255,33.659ZM44.5,33.445l-1.142.381L34.41,22.192l2.3-1.727ZM18.367,10.332l5.621,3.017a1.884,1.884,0,0,1,.938,2.159L24.1,18.292,18.36,14.85l-1.988-1.193Zm-5.921,9.544.512-.8,3.29,2.447a5.727,5.727,0,0,1,2.23,5.4l-.125,2.89L9.416,24.662ZM55,49H40.342l-35-19.4L7.363,25.8,40.5,44.867A1,1,0,0,0,41,45H59A4,4,0,0,1,55,49Zm4-6H41.267l-6.859-3.949L36.714,36.7a1,1,0,0,0-1.428-1.4l-2.668,2.72-3.8-2.19,3.811-3.049a1,1,0,1,0-1.25-1.562l-4.423,3.539L23.7,32.886l4.94-4.117a1,1,0,0,0-1.28-1.538l-5.508,4.591-1.546-.89.162-3.839a7.68,7.68,0,0,0-3.027-7.18L14.034,17.38l1.287-2.021,8.852,5.311a.979.979,0,0,0,.387.125c.024,0,.045.008.069.01s.039.007.059.007a1,1,0,0,0,.361-.067l0,0,10.13-3.907a.607.607,0,0,1,.557.065.6.6,0,0,1,.261.5v1.1l-3.6,2.7a1,1,0,0,0-.192,1.409l10,13a.995.995,0,0,0,1.108.339l2.811-.937,8.986.642A4.2,4.2,0,0,1,59,39.828Z"/><path d="M9,37H4a1,1,0,0,0,0,2H9a1,1,0,0,0,0-2Z"/><path d="M3,44a1,1,0,0,0,1,1H17a1,1,0,0,0,0-2H4A1,1,0,0,0,3,44Z"/><path d="M28,49H4a1,1,0,0,0,0,2H28a1,1,0,0,0,0-2Z"/></g><text x="0" y="79" fill="#000000" font-size="5px" font-weight="bold" font-family="'Helvetica Neue', Helvetica, Arial-Unicode, Arial, Sans-serif">Created by supalerk laipawat</text><text x="0" y="84" fill="#000000" font-size="5px" font-weight="bold" font-family="'Helvetica Neue', Helvetica, Arial-Unicode, Arial, Sans-serif">from the Noun Project</text></svg>